<svg width="20" height="20" viewBox="0 0 20 20" fill="none" xmlns="http://www.w3.org/2000/svg">
<path d="M1 4.28259C0.585786 4.28259 0.25 4.61838 0.25 5.03259C0.25 5.44681 0.585786 5.78259 1 5.78259V4.28259ZM19 5.78259C19.4142 5.78259 19.75 5.44681 19.75 5.03259C19.75 4.61838 19.4142 4.28259 19 4.28259V5.78259ZM3 5.03259V4.28259H2.25V5.03259H3ZM17 5.03259H17.75V4.28259H17V5.03259ZM16.3418 14.8303L17.0624 15.0383L16.3418 14.8303ZM11.724 18.8553L11.8489 19.5949L11.724 18.8553ZM8.27601 18.8553L8.40098 18.1158L8.40097 18.1158L8.27601 18.8553ZM8.11827 18.8287L7.9933 19.5682H7.9933L8.11827 18.8287ZM3.65815 14.8303L2.93757 15.0383L3.65815 14.8303ZM11.8817 18.8287L11.7568 18.0892L11.8817 18.8287ZM5.84254 3.48939L6.52333 3.80406L5.84254 3.48939ZM6.81802 2.18112L6.31749 1.62258V1.62258L6.81802 2.18112ZM8.27793 1.30696L8.53892 2.01009L8.27793 1.30696ZM11.7221 1.30696L11.9831 0.60384V0.603839L11.7221 1.30696ZM14.1575 3.48939L14.8383 3.17471L14.1575 3.48939ZM1 5.78259H19V4.28259H1V5.78259ZM11.7568 18.0892L11.599 18.1158L11.8489 19.5949L12.0067 19.5682L11.7568 18.0892ZM8.40097 18.1158L8.24323 18.0892L7.9933 19.5682L8.15104 19.5949L8.40097 18.1158ZM16.25 5.03259V10.1758H17.75V5.03259H16.25ZM3.75 10.1759V5.03259H2.25V10.1759H3.75ZM16.25 10.1758C16.25 11.6806 16.0383 13.1776 15.6212 14.6223L17.0624 15.0383C17.5185 13.4583 17.75 11.8212 17.75 10.1758H16.25ZM11.599 18.1158C10.5404 18.2947 9.45961 18.2947 8.40098 18.1158L8.15104 19.5949C9.37512 19.8017 10.6248 19.8017 11.8489 19.5949L11.599 18.1158ZM8.24324 18.0892C6.40523 17.7786 4.90157 16.4335 4.37873 14.6223L2.93757 15.0383C3.61878 17.3981 5.58166 19.1607 7.9933 19.5682L8.24324 18.0892ZM4.37873 14.6223C3.9617 13.1776 3.75 11.6806 3.75 10.1759H2.25C2.25 11.8212 2.48148 13.4583 2.93757 15.0383L4.37873 14.6223ZM12.0067 19.5682C14.4183 19.1607 16.3812 17.3981 17.0624 15.0383L15.6212 14.6223C15.0984 16.4335 13.5947 17.7786 11.7568 18.0892L12.0067 19.5682ZM6.25 5.03259C6.25 4.61367 6.34194 4.19649 6.52333 3.80406L5.16175 3.17471C4.89085 3.76079 4.75 4.39238 4.75 5.03259H6.25ZM6.52333 3.80406C6.70487 3.41133 6.97357 3.04881 7.31855 2.73966L6.31749 1.62258C5.82675 2.06235 5.43251 2.58893 5.16175 3.17471L6.52333 3.80406ZM7.31855 2.73966C7.66369 2.43037 8.07776 2.18126 8.53892 2.01009L8.01693 0.603839C7.38616 0.837975 6.80808 1.18295 6.31749 1.62258L7.31855 2.73966ZM8.53892 2.01009C9.00011 1.8389 9.4968 1.75 10 1.75V0.25C9.3213 0.25 8.64767 0.369717 8.01693 0.603839L8.53892 2.01009ZM10 1.75C10.5032 1.75 10.9999 1.8389 11.4611 2.01009L11.9831 0.603839C11.3523 0.369717 10.6787 0.25 10 0.25V1.75ZM11.4611 2.01009C11.9222 2.18126 12.3363 2.43037 12.6815 2.73966L13.6825 1.62258C13.1919 1.18295 12.6138 0.837976 11.9831 0.60384L11.4611 2.01009ZM12.6815 2.73966C13.0264 3.04881 13.2951 3.41133 13.4767 3.80407L14.8383 3.17471C14.5675 2.58893 14.1733 2.06235 13.6825 1.62258L12.6815 2.73966ZM13.4767 3.80406C13.6581 4.19649 13.75 4.61367 13.75 5.03259H15.25C15.25 4.39238 15.1092 3.7608 14.8383 3.17471L13.4767 3.80406ZM3 5.78259H17V4.28259H3V5.78259Z" fill="#FF0000"/>
<path d="M8 10V14M12 10V14" stroke="#FF0000" stroke-width="1.5" stroke-linecap="round"/>
</svg>
