<svg width="18" height="23" viewBox="0 0 18 23" fill="none" xmlns="http://www.w3.org/2000/svg">
<path d="M1 19.7967C1 16.9814 2.9398 14.5834 5.57605 14.1398L5.81351 14.0998C7.92448 13.7445 10.0755 13.7445 12.1865 14.0998L12.424 14.1398C15.0602 14.5834 17 16.9814 17 19.7967C17 21.0136 16.0646 22 14.9107 22H3.08929C1.93541 22 1 21.0136 1 19.7967Z" stroke="#333333" stroke-width="1.7"/>
<path d="M13.6667 5.59375C13.6667 8.13081 11.5774 10.1875 9.00002 10.1875C6.42269 10.1875 4.33336 8.13081 4.33336 5.59375C4.33336 3.05669 6.42269 1 9.00002 1C11.5774 1 13.6667 3.05669 13.6667 5.59375Z" stroke="#333333" stroke-width="1.7"/>
</svg>
